<svg xmlns="http://www.w3.org/2000/svg" width="103" height="36" fill="none"><link xmlns="" type="text/css" rel="stylesheet" id="dark-mode-custom-link"/><link xmlns="" type="text/css" rel="stylesheet" id="dark-mode-general-link"/><style xmlns="" lang="en" type="text/css" id="dark-mode-custom-style"/><style xmlns="" lang="en" type="text/css" id="dark-mode-native-style"/><style xmlns="" lang="en" type="text/css" id="dark-mode-native-sheet"/>
  <path d="M1.302 18.603c0-1.16.225-2.257.675-3.26a8.759 8.759 0 0 1 1.832-2.649 8.701 8.701 0 0 1 2.732-1.786 8.502 8.502 0 0 1 3.327-.658c1.19 0 2.314.219 3.343.658a9.084 9.084 0 0 1 2.732 1.787 8.18 8.18 0 0 1 1.848 2.648c.45 1.003.675 2.084.675 3.26a7.94 7.94 0 0 1-.675 3.244 8.485 8.485 0 0 1-1.848 2.68 8.838 8.838 0 0 1-2.732 1.802c-1.029.439-2.138.658-3.343.658a8.502 8.502 0 0 1-3.327-.658 8.653 8.653 0 0 1-2.732-1.802 8.71 8.71 0 0 1-1.832-2.68 7.94 7.94 0 0 1-.675-3.244Zm3.359 0c0 .69.128 1.348.402 1.974a5.03 5.03 0 0 0 1.108 1.615 5.358 5.358 0 0 0 1.656 1.081 5.174 5.174 0 0 0 2.025.392 5.23 5.23 0 0 0 2.025-.392 5.175 5.175 0 0 0 1.655-1.081 5.207 5.207 0 0 0 1.109-1.614 4.83 4.83 0 0 0 .402-1.975c0-.69-.129-1.348-.402-1.96a5.136 5.136 0 0 0-1.109-1.598 5.355 5.355 0 0 0-1.655-1.081 5.23 5.23 0 0 0-2.025-.392 5.23 5.23 0 0 0-2.025.392 5.173 5.173 0 0 0-1.656 1.081 5.137 5.137 0 0 0-1.108 1.599 4.757 4.757 0 0 0-.402 1.959ZM28.157 10.281c1.19 0 2.314.22 3.343.658a9.08 9.08 0 0 1 2.732 1.787 8.18 8.18 0 0 1 1.848 2.648c.45 1.003.675 2.085.675 3.26a7.94 7.94 0 0 1-.675 3.244 8.487 8.487 0 0 1-1.848 2.68A8.84 8.84 0 0 1 31.5 26.36c-1.029.44-2.138.659-3.343.659h-5.143v6.692h-3.407V18.65c0-1.16.225-2.257.675-3.26a8.76 8.76 0 0 1 1.832-2.649 8.7 8.7 0 0 1 2.732-1.786c1.029-.47 2.138-.674 3.31-.674Zm2.025 12.992a5.174 5.174 0 0 0 1.655-1.081 5.207 5.207 0 0 0 1.109-1.614c.273-.627.402-1.27.402-1.975 0-.69-.129-1.348-.402-1.96a5.136 5.136 0 0 0-1.109-1.598 5.355 5.355 0 0 0-1.655-1.081 5.23 5.23 0 0 0-2.025-.392c-.707 0-1.382.126-2.009.392a5.282 5.282 0 0 0-1.64 1.081 5.136 5.136 0 0 0-1.108 1.599 4.705 4.705 0 0 0-.402 1.959v5.062h5.143c.723 0 1.398-.125 2.04-.392ZM53.26 10.202v3.307H42.926a1.67 1.67 0 0 0-1.221.486c-.338.33-.498.721-.498 1.191 0 .47.16.878.498 1.207.337.329.74.501 1.221.501h6.863c.707 0 1.382.126 2.008.392a5.24 5.24 0 0 1 1.64 1.066c.466.439.835.971 1.109 1.583.273.611.401 1.254.401 1.959 0 .69-.128 1.348-.401 1.959a5.137 5.137 0 0 1-1.11 1.598 5.283 5.283 0 0 1-1.639 1.082 5.04 5.04 0 0 1-2.008.391H39.487v-3.306h10.302c.514 0 .932-.157 1.253-.486.338-.33.498-.737.498-1.223 0-.47-.16-.861-.498-1.19-.337-.33-.755-.486-1.253-.486h-6.863a5.095 5.095 0 0 1-3.632-1.474 5.374 5.374 0 0 1-1.093-1.598 4.705 4.705 0 0 1-.401-1.96c0-.689.128-1.347.401-1.958a5.025 5.025 0 0 1 1.093-1.583c.45-.439.997-.8 1.623-1.066a5.04 5.04 0 0 1 2.01-.392H53.26ZM59.447 3.495v23.398h-3.39V3.495h3.39ZM77.833 10.234v15.03c0 1.16-.225 2.256-.675 3.26a8.83 8.83 0 0 1-1.832 2.663 8.405 8.405 0 0 1-2.716 1.803c-1.03.438-2.138.658-3.343.658h-1.72V30.34h1.72c.707 0 1.382-.125 2.009-.392a5.282 5.282 0 0 0 1.639-1.081 5.207 5.207 0 0 0 1.109-1.614c.273-.627.401-1.27.401-1.975v-.047a8.218 8.218 0 0 1-2.378 1.27 8.57 8.57 0 0 1-2.764.438 8.503 8.503 0 0 1-3.327-.658 8.726 8.726 0 0 1-2.748-1.802 8.485 8.485 0 0 1-1.848-2.68 7.94 7.94 0 0 1-.675-3.244v-8.322h3.39v8.338c0 .689.13 1.347.403 1.974a5.03 5.03 0 0 0 1.108 1.614 5.358 5.358 0 0 0 1.656 1.082 5.173 5.173 0 0 0 2.025.392c.707 0 1.382-.126 2.009-.392a5.282 5.282 0 0 0 1.639-1.082 5.207 5.207 0 0 0 1.109-1.614c.273-.627.401-1.27.401-1.974v-8.338h3.408ZM85.579 7.21a5.175 5.175 0 0 0-1.655 1.08 5.137 5.137 0 0 0-1.11 1.6 4.705 4.705 0 0 0-.401 1.958v1.708h6.862v3.307h-6.862V26.91h-3.391V11.832c0-1.16.225-2.256.675-3.26a8.53 8.53 0 0 1 1.848-2.648 8.963 8.963 0 0 1 2.748-1.787 8.503 8.503 0 0 1 3.327-.658h1.671v3.307h-1.703c-.707.031-1.382.157-2.01.423ZM100.798 23.586v3.307h-1.671a8.502 8.502 0 0 1-3.327-.658 8.727 8.727 0 0 1-2.748-1.802 8.485 8.485 0 0 1-1.848-2.68 7.94 7.94 0 0 1-.675-3.244V3.495h3.39V13.54h6.863v3.306H93.92v1.677c0 .69.129 1.348.402 1.975a5.03 5.03 0 0 0 1.109 1.614 5.357 5.357 0 0 0 1.655 1.082 5.173 5.173 0 0 0 2.025.391h1.687Z" fill="#1073FF"/>
</svg>